<?xml version="1.0" encoding="UTF-8"?>
<!DOCTYPE svg PUBLIC "-//W3C//DTD SVG 1.1//EN" "http://www.w3.org/Graphics/SVG/1.1/DTD/svg11.dtd">
<svg xmlns="http://www.w3.org/2000/svg" version="1.1" width="2000px" height="1500px" style="shape-rendering:geometricPrecision; text-rendering:geometricPrecision; image-rendering:optimizeQuality; fill-rule:evenodd; clip-rule:evenodd" xmlns:xlink="http://www.w3.org/1999/xlink">
<g><path style="opacity:1" fill="#680030" d="M -0.5,-0.5 C 666.167,-0.5 1332.83,-0.5 1999.5,-0.5C 1999.5,499.5 1999.5,999.5 1999.5,1499.5C 1332.83,1499.5 666.167,1499.5 -0.5,1499.5C -0.5,999.5 -0.5,499.5 -0.5,-0.5 Z"/></g>
<g><path style="opacity:1" fill="#fd5d02" d="M 1029.5,249.5 C 1079.85,247.53 1129.52,252.363 1178.5,264C 1276.55,291.182 1320.71,355.682 1311,457.5C 1304.16,557.909 1259.66,636.742 1177.5,694C 1216.3,701.287 1253.3,713.953 1288.5,732C 1354.64,770.425 1385.64,828.259 1381.5,905.5C 1382.71,977.034 1361.21,1040.7 1317,1096.5C 1235.53,1191.98 1131.7,1242.81 1005.5,1249C 875.834,1249.5 746.167,1249.67 616.5,1249.5C 616.5,1235.5 616.5,1221.5 616.5,1207.5C 635.836,1207.67 655.17,1207.5 674.5,1207C 688.075,1206.92 700.742,1203.58 712.5,1197C 720.05,1189.4 724.55,1180.23 726,1169.5C 726.813,1164.19 727.479,1158.85 728,1153.5C 728.667,887.5 728.667,621.5 728,355.5C 727.629,343.234 724.296,331.901 718,321.5C 713.195,315.512 707.028,311.679 699.5,310C 690.951,307.922 682.284,306.588 673.5,306C 654.503,305.5 635.503,305.333 616.5,305.5C 616.5,291.5 616.5,277.5 616.5,263.5C 680.168,263.667 743.834,263.5 807.5,263C 881.688,258.973 955.688,254.473 1029.5,249.5 Z"/></g>
<g><path style="opacity:1" fill="#680030" d="M 928.5,325.5 C 984.594,322.022 1038.59,330.855 1090.5,352C 1120.22,364.765 1146.39,382.598 1169,405.5C 1196.95,438.17 1210.78,476.17 1210.5,519.5C 1209.59,564.745 1194.09,604.078 1164,637.5C 1131.75,675.713 1090.58,697.213 1040.5,702C 977.834,702.5 915.168,702.667 852.5,702.5C 852.5,579.5 852.5,456.5 852.5,333.5C 877.844,329.555 903.178,326.888 928.5,325.5 Z"/></g>
<g><path style="opacity:1" fill="#680030" d="M 852.5,762.5 C 905.501,762.333 958.501,762.5 1011.5,763C 1068.27,765.371 1121.93,779.371 1172.5,805C 1219.73,830.56 1249.23,869.726 1261,922.5C 1267.98,957.432 1268.31,992.432 1262,1027.5C 1251.49,1074.38 1226.66,1111.55 1187.5,1139C 1144.9,1167.42 1097.9,1183.09 1046.5,1186C 991.367,1189.84 937.033,1184.84 883.5,1171C 873.092,1168.32 862.759,1165.48 852.5,1162.5C 852.5,1029.17 852.5,895.833 852.5,762.5 Z"/></g>
</svg>
